<svg width="75" height="55" viewBox="0 0 75 55" fill="none" xmlns="http://www.w3.org/2000/svg">
<path d="M4.31096 54.6733H15.0478C15.4103 54.6733 15.7041 54.3795 15.7041 54.0171V52.21C15.7041 51.8475 15.4103 51.5537 15.0478 51.5537H4.31096C3.94851 51.5537 3.65469 51.8475 3.65469 52.21V54.0171C3.65469 54.3795 3.94851 54.6733 4.31096 54.6733Z" fill="#FFBC0E"/>
<path d="M15.0477 54.9844H4.31088C4.05404 54.9844 3.80768 54.8826 3.62578 54.7013C3.44388 54.52 3.34128 54.2739 3.34045 54.0171V52.21C3.34128 51.9532 3.44388 51.7071 3.62578 51.5258C3.80768 51.3445 4.05404 51.2427 4.31088 51.2427H15.0477C15.304 51.2435 15.5496 51.3457 15.7308 51.5269C15.9121 51.7081 16.0142 51.9537 16.0151 52.21V54.0171C16.0151 54.1441 15.99 54.2699 15.9414 54.3873C15.8928 54.5046 15.8216 54.6113 15.7317 54.7011C15.6419 54.7909 15.5353 54.8622 15.4179 54.9108C15.3006 54.9594 15.1748 54.9844 15.0477 54.9844ZM4.31088 51.8741C4.21902 51.8741 4.13088 51.9103 4.06564 51.975C4.0004 52.0397 3.96334 52.1275 3.96252 52.2193V54.0264C3.96334 54.1183 4.0004 54.2061 4.06564 54.2707C4.13088 54.3354 4.21902 54.3717 4.31088 54.3717H15.0477C15.0931 54.3717 15.138 54.3627 15.1799 54.3454C15.2217 54.328 15.2598 54.3026 15.2919 54.2705C15.3239 54.2385 15.3494 54.2004 15.3667 54.1585C15.3841 54.1167 15.393 54.0718 15.393 54.0264V52.2193C15.393 52.174 15.3841 52.1291 15.3667 52.0872C15.3494 52.0453 15.3239 52.0072 15.2919 51.9752C15.2598 51.9431 15.2217 51.9177 15.1799 51.9004C15.138 51.883 15.0931 51.8741 15.0477 51.8741H4.31088Z" fill="#093F68"/>
<path d="M5.59856 51.5537H16.3354C16.6979 51.5537 16.9917 51.2599 16.9917 50.8974V49.0903C16.9917 48.7279 16.6979 48.4341 16.3354 48.4341H5.59856C5.2361 48.4341 4.94228 48.7279 4.94228 49.0903V50.8974C4.94228 51.2599 5.2361 51.5537 5.59856 51.5537Z" fill="#FFBC0E"/>
<path d="M16.3355 51.8648H5.5986C5.34176 51.8648 5.0954 51.763 4.9135 51.5816C4.7316 51.4003 4.629 51.1543 4.62817 50.8975V49.0904C4.629 48.8335 4.7316 48.5875 4.9135 48.4062C5.0954 48.2249 5.34176 48.123 5.5986 48.123H16.3355C16.5918 48.1239 16.8373 48.226 17.0185 48.4073C17.1998 48.5885 17.302 48.8341 17.3028 49.0904V50.8975C17.302 51.1538 17.1998 51.3993 17.0185 51.5805C16.8373 51.7618 16.5918 51.864 16.3355 51.8648ZM5.5986 48.7544C5.50674 48.7544 5.4186 48.7907 5.35336 48.8554C5.28812 48.92 5.25106 49.0078 5.25024 49.0997V50.9068C5.25106 50.9986 5.28812 51.0865 5.35336 51.1511C5.4186 51.2158 5.50674 51.252 5.5986 51.252H16.3355C16.3808 51.252 16.4257 51.2431 16.4676 51.2258C16.5095 51.2084 16.5475 51.183 16.5796 51.1509C16.6116 51.1189 16.6371 51.0808 16.6544 51.0389C16.6718 50.997 16.6807 50.9521 16.6807 50.9068V49.0997C16.6807 49.0544 16.6718 49.0095 16.6544 48.9676C16.6371 48.9257 16.6116 48.8876 16.5796 48.8556C16.5475 48.8235 16.5095 48.7981 16.4676 48.7807C16.4257 48.7634 16.3808 48.7544 16.3355 48.7544H5.5986Z" fill="#093F68"/>
<path d="M6.91118 48.4341H17.648C18.0105 48.4341 18.3043 48.1403 18.3043 47.7778V45.9707C18.3043 45.6082 18.0105 45.3144 17.648 45.3144H6.91118C6.54873 45.3144 6.2549 45.6082 6.2549 45.9707V47.7778C6.2549 48.1403 6.54873 48.4341 6.91118 48.4341Z" fill="#FFBC0E"/>
<path d="M17.6448 48.7451H6.90798C6.65169 48.7443 6.40613 48.6421 6.2249 48.4609C6.04367 48.2796 5.94149 48.0341 5.94067 47.7778V45.9707C5.94067 45.7141 6.04259 45.4681 6.22399 45.2867C6.4054 45.1053 6.65144 45.0034 6.90798 45.0034H17.6448C17.9017 45.0034 18.148 45.1052 18.3299 45.2865C18.5118 45.4678 18.6144 45.7138 18.6153 45.9707V47.7778C18.6144 48.0346 18.5118 48.2806 18.3299 48.462C18.148 48.6433 17.9017 48.7451 17.6448 48.7451ZM6.90798 45.6348C6.81642 45.6348 6.72861 45.6711 6.66386 45.7359C6.59911 45.8006 6.56274 45.8884 6.56274 45.98V47.7871C6.56274 47.8787 6.59911 47.9665 6.66386 48.0312C6.72861 48.096 6.81642 48.1323 6.90798 48.1323H17.6448C17.7367 48.1324 17.8248 48.0961 17.8901 48.0314C17.9553 47.9668 17.9924 47.879 17.9932 47.7871V45.98C17.9924 45.8882 17.9553 45.8003 17.8901 45.7357C17.8248 45.671 17.7367 45.6347 17.6448 45.6348H6.90798Z" fill="#093F68"/>
<path d="M2.74016 45.3113H13.477C13.8395 45.3113 14.1333 45.0175 14.1333 44.655V42.8479C14.1333 42.4854 13.8395 42.1916 13.477 42.1916H2.74016C2.37771 42.1916 2.08388 42.4854 2.08388 42.8479V44.655C2.08388 45.0175 2.37771 45.3113 2.74016 45.3113Z" fill="#FFBC0E"/>
<path d="M13.4741 45.6255H2.73721C2.48092 45.6246 2.23535 45.5225 2.05412 45.3412C1.87289 45.16 1.77072 44.9144 1.7699 44.6581V42.851C1.7699 42.724 1.79492 42.5982 1.84353 42.4809C1.89214 42.3635 1.96339 42.2569 2.05322 42.167C2.14304 42.0772 2.24968 42.006 2.36704 41.9574C2.4844 41.9087 2.61018 41.8837 2.73721 41.8837H13.4741C13.7309 41.8837 13.9773 41.9855 14.1592 42.1669C14.3411 42.3482 14.4437 42.5942 14.4445 42.851V44.6581C14.4437 44.915 14.3411 45.161 14.1592 45.3423C13.9773 45.5236 13.7309 45.6255 13.4741 45.6255ZM2.73721 42.5151C2.64565 42.5151 2.55783 42.5515 2.49308 42.6162C2.42834 42.681 2.39196 42.7688 2.39196 42.8604V44.6675C2.39196 44.7128 2.40089 44.7577 2.41824 44.7996C2.43559 44.8415 2.46102 44.8795 2.49308 44.9116C2.52514 44.9437 2.5632 44.9691 2.60509 44.9864C2.64698 45.0038 2.69187 45.0127 2.73721 45.0127H13.4741C13.5659 45.0127 13.6541 44.9764 13.7193 44.9118C13.7845 44.8471 13.8216 44.7593 13.8224 44.6675V42.8604C13.8224 42.8148 13.8134 42.7696 13.7959 42.7275C13.7783 42.6854 13.7526 42.6472 13.7202 42.6151C13.6878 42.583 13.6494 42.5577 13.6071 42.5405C13.5649 42.5233 13.5197 42.5147 13.4741 42.5151H2.73721Z" fill="#093F68"/>
<path d="M4.31096 42.1948H15.0478C15.4103 42.1948 15.7041 41.9009 15.7041 41.5385V39.7314C15.7041 39.3689 15.4103 39.0751 15.0478 39.0751H4.31096C3.94851 39.0751 3.65469 39.3689 3.65469 39.7314V41.5385C3.65469 41.9009 3.94851 42.1948 4.31096 42.1948Z" fill="#FFBC0E"/>
<path d="M15.0477 42.5058H4.31088C4.0535 42.5058 3.80667 42.4035 3.62468 42.2215C3.44269 42.0395 3.34045 41.7927 3.34045 41.5353V39.7313C3.34045 39.6039 3.36555 39.4777 3.41432 39.36C3.46309 39.2422 3.53457 39.1353 3.62468 39.0452C3.7148 38.955 3.82177 38.8836 3.93951 38.8348C4.05725 38.786 4.18344 38.7609 4.31088 38.7609H15.0477C15.3046 38.7617 15.5506 38.8644 15.7319 39.0463C15.9132 39.2282 16.0151 39.4745 16.0151 39.7313V41.5353C16.0151 41.7922 15.9132 42.0385 15.7319 42.2204C15.5506 42.4023 15.3046 42.5049 15.0477 42.5058ZM4.31088 39.3954C4.21849 39.3954 4.12988 39.4321 4.06455 39.4975C3.99922 39.5628 3.96252 39.6514 3.96252 39.7438V41.5478C3.96252 41.6402 3.99922 41.7288 4.06455 41.7941C4.12988 41.8594 4.21849 41.8961 4.31088 41.8961H15.0477C15.1396 41.8953 15.2274 41.8583 15.2921 41.793C15.3567 41.7278 15.393 41.6396 15.393 41.5478V39.7438C15.393 39.6519 15.3567 39.5638 15.2921 39.4986C15.2274 39.4333 15.1396 39.3963 15.0477 39.3954H4.31088Z" fill="#093F68"/>
<path d="M17.0291 28.9914C15.7103 28.9914 13.6793 28.7519 12.2454 27.4829C12.0413 27.3044 11.867 27.0944 11.7291 26.8608C10.9049 26.752 9.86291 26.3258 8.73697 25.1595C8.67964 25.1001 8.64825 25.0203 8.64971 24.9378C8.65117 24.8553 8.68535 24.7767 8.74475 24.7194C8.80414 24.662 8.88387 24.6306 8.96641 24.6321C9.04895 24.6335 9.12752 24.6677 9.18485 24.7271C9.79055 25.4037 10.569 25.9026 11.4367 26.1703C11.2607 25.5271 11.2394 24.8514 11.3745 24.1984C11.5829 23.1906 12.1117 22.4535 12.7897 22.2326C13.191 22.102 13.8317 22.0927 14.5999 22.7863C14.8574 23.0206 15.0451 23.3215 15.1423 23.6558C15.2394 23.99 15.2423 24.3447 15.1505 24.6805C15.0131 25.1864 14.7442 25.6469 14.371 26.0152C13.9979 26.3834 13.5338 26.6462 13.0261 26.7768C12.855 26.8239 12.6802 26.8562 12.5036 26.8733C12.5512 26.9271 12.6021 26.978 12.656 27.0257C14.6839 28.8203 18.2204 28.3071 18.2546 28.3009C18.3371 28.2885 18.4211 28.3094 18.4882 28.359C18.5553 28.4086 18.5999 28.4828 18.6123 28.5653C18.6246 28.6478 18.6037 28.7318 18.5542 28.7989C18.5046 28.866 18.4304 28.9106 18.3479 28.923C17.9103 28.975 17.4697 28.9979 17.0291 28.9914ZM12.1272 26.2605C12.3752 26.2671 12.6228 26.2357 12.8613 26.1672C13.2605 26.0638 13.6258 25.8579 13.9209 25.5698C14.2161 25.2817 14.4309 24.9216 14.544 24.525C14.6086 24.2979 14.609 24.0575 14.5454 23.8302C14.4817 23.6029 14.3563 23.3977 14.1832 23.2373C13.7446 22.8423 13.3403 22.6992 12.9826 22.8143C12.5285 22.9636 12.1428 23.539 11.9842 24.3166C11.8443 24.9649 11.894 25.6397 12.1272 26.2605Z" fill="#093F68"/>
<path d="M54.7324 19.0041C54.7324 19.0041 63.1303 13.0758 62.8784 15.7289C62.6264 18.382 60.7727 23.8158 60.7727 23.8158" fill="#3E78B2"/>
<path d="M60.7883 24.1299C60.7533 24.1296 60.7186 24.1232 60.6857 24.1113C60.6078 24.0844 60.5437 24.0277 60.5075 23.9537C60.4714 23.8796 60.4661 23.7942 60.4928 23.7163C60.5115 23.6634 62.359 18.2856 62.5861 15.701C62.6079 15.4583 62.5301 15.4148 62.5052 15.3899C61.7712 14.9638 58.0761 17.0197 54.9254 19.2467C54.8622 19.2706 54.793 19.2733 54.7283 19.2543C54.6635 19.2354 54.6066 19.1959 54.5662 19.1419C54.5258 19.0878 54.5041 19.0221 54.5044 18.9546C54.5047 18.8871 54.5269 18.8215 54.5677 18.7677C55.6905 17.9715 61.37 14.0494 62.8163 14.8767C62.9645 14.968 63.0812 15.1025 63.1507 15.2621C63.2202 15.4216 63.2392 15.5987 63.205 15.7694C62.9687 18.4318 61.1585 23.7101 61.0807 23.934C61.0575 23.9924 61.0171 24.0423 60.9649 24.0773C60.9127 24.1123 60.8511 24.1306 60.7883 24.1299Z" fill="#093F68"/>
<path d="M48.9006 54.6734H51.6502C52.1715 54.6735 52.6752 54.4844 53.0676 54.1411C53.46 53.7979 53.7145 53.3239 53.7839 52.8072L54.8818 44.7825H45.6721L46.7701 52.8072C46.8387 53.3236 47.0926 53.7976 47.4845 54.1409C47.8764 54.4842 48.3796 54.6734 48.9006 54.6734Z" fill="#3E78B2"/>
<path d="M51.6501 54.9844H48.9005C48.3061 54.9827 47.7322 54.7665 47.2843 54.3757C46.8363 53.9849 46.5444 53.4457 46.462 52.857L45.3641 44.8323C45.3583 44.7884 45.362 44.7438 45.3749 44.7014C45.3878 44.659 45.4095 44.6199 45.4387 44.5866C45.4676 44.5528 45.5034 44.5257 45.5436 44.5069C45.5838 44.4881 45.6276 44.4782 45.672 44.4777H54.8786C54.9235 44.4777 54.9679 44.4874 55.0087 44.5062C55.0495 44.525 55.0858 44.5524 55.115 44.5866C55.1442 44.6199 55.166 44.659 55.1789 44.7014C55.1917 44.7438 55.1954 44.7884 55.1896 44.8323L54.0917 52.857C54.0056 53.4446 53.7121 53.9821 53.2643 54.3722C52.8166 54.7624 52.244 54.9796 51.6501 54.9844ZM46.0297 45.0998L47.0779 52.7699C47.1393 53.2102 47.3573 53.6136 47.6921 53.9061C48.0269 54.1986 48.456 54.3606 48.9005 54.3624H51.6501C52.0952 54.3614 52.525 54.1997 52.8604 53.9071C53.1959 53.6146 53.4144 53.2107 53.4758 52.7699L54.524 45.0998H46.0297Z" fill="#093F68"/>
<path d="M27.1377 54.6734H29.8872C30.4086 54.6735 30.9123 54.4844 31.3047 54.1411C31.6971 53.7979 31.9516 53.3239 32.0209 52.8072L33.1158 44.7825H23.9092L25.0071 52.8072C25.0751 53.3239 25.3288 53.7982 25.7209 54.1417C26.1129 54.4851 26.6165 54.6741 27.1377 54.6734Z" fill="#3E78B2"/>
<path d="M29.8871 54.9844H27.1376C26.5459 54.9766 25.9763 54.7581 25.5311 54.3682C25.0859 53.9783 24.7942 53.4425 24.7084 52.857L23.6136 44.8323C23.6078 44.7884 23.6115 44.7438 23.6244 44.7014C23.6373 44.659 23.659 44.6199 23.6883 44.5866C23.7171 44.5528 23.7529 44.5257 23.7931 44.5069C23.8333 44.4881 23.8771 44.4782 23.9215 44.4777H33.1063C33.1513 44.4777 33.1957 44.4874 33.2365 44.5062C33.2773 44.525 33.3135 44.5524 33.3427 44.5866C33.3714 44.6201 33.3926 44.6594 33.4049 44.7017C33.4173 44.7441 33.4205 44.7886 33.4143 44.8323L32.3194 52.857C32.2336 53.443 31.9415 53.9793 31.4956 54.3692C31.0498 54.7592 30.4794 54.9773 29.8871 54.9844ZM24.2637 45.0998L25.3305 52.7699C25.3913 53.2105 25.6092 53.6143 25.9441 53.9069C26.279 54.1995 26.7084 54.3613 27.1532 54.3624H29.9027C30.3478 54.3614 30.7776 54.1997 31.113 53.9071C31.4485 53.6146 31.667 53.2107 31.7285 52.7699L32.7766 45.0998H24.2637Z" fill="#093F68"/>
<path d="M31.9027 15.3464H46.3968C50.8076 15.3464 55.0378 17.0986 58.1567 20.2175C61.2756 23.3364 63.0278 27.5665 63.0278 31.9773V33.1001C63.0268 36.615 61.9127 40.0392 59.8452 42.8817C57.7778 45.7242 54.8632 47.8388 51.5195 48.9224L50.9877 52.8134C50.9184 53.3301 50.6639 53.8041 50.2714 54.1474C49.879 54.4906 49.3753 54.6797 48.854 54.6796H46.1044C45.5831 54.6797 45.0794 54.4906 44.687 54.1474C44.2946 53.8041 44.0401 53.3301 43.9708 52.8134L43.5509 49.7311H31.9027C31.1421 49.7303 30.3824 49.6773 29.629 49.5724L29.1843 52.8134C29.115 53.3296 28.861 53.8032 28.4692 54.1463C28.0774 54.4895 27.5745 54.679 27.0537 54.6796H24.3041C23.7828 54.6797 23.2791 54.4906 22.8867 54.1474C22.4943 53.8041 22.2398 53.3301 22.1705 52.8134L21.2187 45.8432C19.3535 44.2832 17.854 42.3324 16.8263 40.1287C15.7986 37.925 15.2679 35.5223 15.2717 33.0908V31.968C15.2742 27.5588 17.0275 23.3311 20.1461 20.2142C23.2648 17.0973 27.4935 15.3464 31.9027 15.3464Z" fill="#3E78B2"/>
<path d="M48.8632 54.9845H46.1137C45.5214 54.9774 44.9511 54.7593 44.5052 54.3693C44.0594 53.9793 43.7673 53.4431 43.6814 52.857L43.2989 50.0577H31.9026C31.2311 50.0568 30.5601 50.0163 29.8933 49.9364L29.4921 52.8726C29.4098 53.4613 29.1178 54.0006 28.6699 54.3914C28.2219 54.7822 27.6481 54.9983 27.0536 55H24.3041C23.7102 54.9952 23.1376 54.778 22.6898 54.3879C22.242 53.9977 21.9486 53.4602 21.8625 52.8726L20.9294 46.0298C19.0579 44.4414 17.5549 42.4645 16.5246 40.2365C15.4944 38.0085 14.9618 35.5829 14.9638 33.1282V32.0054C14.9613 27.5093 16.7441 23.1962 19.9204 20.014C23.0967 16.8319 27.4065 15.0412 31.9026 15.0354H46.3967C50.8885 15.0403 55.1949 16.8269 58.3711 20.003C61.5472 23.1792 63.3338 27.4856 63.3387 31.9774V33.1002C63.346 36.6481 62.2362 40.1083 60.1667 42.9901C58.0972 45.8719 55.173 48.029 51.8087 49.1557L51.3048 52.857C51.2187 53.4447 50.9253 53.9821 50.4775 54.3723C50.0297 54.7625 49.4571 54.9796 48.8632 54.9845ZM29.629 49.249H29.6849C30.425 49.3508 31.1711 49.4028 31.9182 49.4046H43.5757C43.6516 49.4039 43.7252 49.4311 43.7825 49.4809C43.8398 49.5308 43.8768 49.5998 43.8867 49.6751L44.3097 52.7544C44.3705 53.195 44.5884 53.5988 44.9233 53.8914C45.2582 54.184 45.6876 54.3458 46.1324 54.3469H48.8819C49.327 54.3459 49.7568 54.1842 50.0922 53.8917C50.4277 53.5991 50.6462 53.1952 50.7077 52.7544L51.2395 48.8634C51.2477 48.8058 51.2719 48.7517 51.3092 48.7071C51.3466 48.6626 51.3958 48.6294 51.451 48.6114C54.7344 47.5529 57.5967 45.4786 59.6249 42.688C61.653 39.8973 62.7422 36.5345 62.7353 33.0846V31.9618C62.7263 27.6345 61.0009 23.4875 57.9378 20.4308C54.8747 17.3741 50.7241 15.6575 46.3967 15.6575H31.9026C27.5758 15.6624 23.4277 17.3834 20.3681 20.4429C17.3086 23.5024 15.5876 27.6506 15.5827 31.9774V33.1002C15.5814 35.4843 16.1033 37.8396 17.1115 40C18.1196 42.1605 19.5896 44.0733 21.4177 45.6037C21.476 45.6542 21.5145 45.7236 21.5265 45.7997L22.4783 52.7699C22.5398 53.2108 22.7583 53.6146 23.0937 53.9072C23.4292 54.1998 23.859 54.3614 24.3041 54.3624H27.0536C27.4982 54.3607 27.9272 54.1987 28.262 53.9062C28.5968 53.6137 28.8149 53.2103 28.8763 52.7699L29.3179 49.5321C29.3237 49.4916 29.3373 49.4526 29.3581 49.4173C29.3789 49.3821 29.4065 49.3513 29.4392 49.3268C29.4919 49.2802 29.5587 49.2528 29.629 49.249Z" fill="#093F68"/>
<path d="M54.1385 40.5214H61.1492C63.4802 40.5214 65.3699 38.6317 65.3699 36.3006V35.7626C65.3699 33.4315 63.4802 31.5418 61.1492 31.5418H54.1385C51.8074 31.5418 49.9177 33.4315 49.9177 35.7626V36.3006C49.9177 38.6317 51.8074 40.5214 54.1385 40.5214Z" fill="#3E78B2"/>
<path d="M61.1491 40.8324H54.1384C52.937 40.8308 51.7853 40.3528 50.9358 39.5033C50.0863 38.6538 49.6083 37.5021 49.6067 36.3007V35.7626C49.6083 34.5612 50.0863 33.4095 50.9358 32.56C51.7853 31.7105 52.937 31.2325 54.1384 31.2308H61.1491C62.3505 31.2325 63.5022 31.7105 64.3517 32.56C65.2012 33.4095 65.6792 34.5612 65.6809 35.7626V36.3007C65.6792 37.5021 65.2012 38.6538 64.3517 39.5033C63.5022 40.3528 62.3505 40.8308 61.1491 40.8324ZM54.1384 31.8529C53.102 31.8545 52.1085 32.267 51.3757 32.9998C50.6428 33.7327 50.2304 34.7262 50.2288 35.7626V36.3007C50.2304 37.3371 50.6428 38.3306 51.3757 39.0634C52.1085 39.7963 53.102 40.2087 54.1384 40.2104H61.1491C62.1855 40.2087 63.179 39.7963 63.9119 39.0634C64.6447 38.3306 65.0572 37.3371 65.0588 36.3007V35.7626C65.0572 34.7262 64.6447 33.7327 63.9119 32.9998C63.179 32.267 62.1855 31.8545 61.1491 31.8529H54.1384Z" fill="#093F68"/>
<path d="M51.5568 19.6044C51.5568 19.6044 48.7575 12.2672 47.3112 12.2672C45.8648 12.2672 43.6814 21.6324 43.6814 21.6324" fill="#3E78B2"/>
<path d="M43.6815 21.9434H43.61C43.5692 21.9349 43.5306 21.9184 43.4964 21.8948C43.4622 21.8712 43.433 21.8409 43.4107 21.8058C43.3884 21.7707 43.3733 21.7315 43.3664 21.6905C43.3595 21.6495 43.3609 21.6075 43.3705 21.567C43.3705 21.5453 43.9272 19.1907 44.6488 16.8642C45.9987 12.5098 46.7794 11.9623 47.3081 11.9623C48.8633 11.9623 51.1712 17.732 51.8461 19.4987C51.8606 19.5369 51.8675 19.5775 51.8662 19.6184C51.865 19.6592 51.8558 19.6994 51.839 19.7367C51.8223 19.7739 51.7983 19.8075 51.7686 19.8355C51.7389 19.8635 51.7039 19.8854 51.6657 19.8999C51.6275 19.9144 51.5868 19.9212 51.546 19.92C51.5052 19.9188 51.465 19.9096 51.4277 19.8928C51.3905 19.8761 51.3569 19.8521 51.3289 19.8224C51.3009 19.7927 51.279 19.7577 51.2645 19.7195C49.955 16.2981 48.0702 12.5844 47.3081 12.5844C46.7265 12.5844 45.2491 16.2515 43.977 21.7101C43.96 21.7759 43.9219 21.8344 43.8685 21.8765C43.8152 21.9187 43.7495 21.9421 43.6815 21.9434Z" fill="#093F68"/>
<path d="M60.1009 37.3271C60.8155 37.3271 61.3948 36.7478 61.3948 36.0332C61.3948 35.3186 60.8155 34.7393 60.1009 34.7393C59.3863 34.7393 58.807 35.3186 58.807 36.0332C58.807 36.7478 59.3863 37.3271 60.1009 37.3271Z" fill="#3E78B2"/>
<path d="M60.101 37.6381C59.7828 37.6381 59.4718 37.5438 59.2073 37.3669C58.9427 37.1901 58.7366 36.9388 58.615 36.6447C58.4934 36.3507 58.4617 36.0273 58.524 35.7152C58.5863 35.4032 58.7398 35.1167 58.965 34.8919C59.1902 34.6672 59.477 34.5143 59.7892 34.4526C60.1013 34.3909 60.4247 34.4232 60.7185 34.5454C61.0123 34.6675 61.2632 34.8741 61.4395 35.139C61.6158 35.4038 61.7096 35.715 61.709 36.0332C61.7082 36.4591 61.5384 36.8674 61.2369 37.1683C60.9354 37.4692 60.5269 37.6381 60.101 37.6381ZM60.101 35.0472C59.906 35.0472 59.7153 35.1051 59.5532 35.2134C59.391 35.3217 59.2647 35.4757 59.19 35.6559C59.1154 35.8361 59.0959 36.0343 59.1339 36.2256C59.172 36.4168 59.2659 36.5925 59.4038 36.7304C59.5417 36.8683 59.7173 36.9622 59.9086 37.0002C60.0999 37.0383 60.2981 37.0188 60.4783 36.9441C60.6584 36.8695 60.8124 36.7431 60.9208 36.581C61.0291 36.4188 61.0869 36.2282 61.0869 36.0332C61.0869 35.9037 61.0614 35.7755 61.0119 35.6559C60.9623 35.5363 60.8897 35.4276 60.7981 35.336C60.7066 35.2445 60.5979 35.1718 60.4783 35.1223C60.3586 35.0727 60.2304 35.0472 60.101 35.0472Z" fill="#093F68"/>
<path d="M55.1866 37.3271C55.9012 37.3271 56.4805 36.7478 56.4805 36.0332C56.4805 35.3186 55.9012 34.7393 55.1866 34.7393C54.472 34.7393 53.8927 35.3186 53.8927 36.0332C53.8927 36.7478 54.472 37.3271 55.1866 37.3271Z" fill="#3E78B2"/>
<path d="M55.1898 37.6381C54.8715 37.6388 54.5601 37.5449 54.2952 37.3684C54.0303 37.192 53.8237 36.9409 53.7016 36.6469C53.5795 36.3529 53.5474 36.0294 53.6094 35.7171C53.6713 35.4049 53.8245 35.1181 54.0496 34.893C54.2747 34.668 54.5615 34.5148 54.8737 34.4528C55.1859 34.3909 55.5095 34.423 55.8035 34.5451C56.0974 34.6672 56.3485 34.8737 56.525 35.1387C56.7014 35.4036 56.7953 35.7149 56.7947 36.0332C56.7939 36.4586 56.6245 36.8663 56.3237 37.1672C56.0229 37.468 55.6152 37.6373 55.1898 37.6381ZM55.1898 35.0472C54.9946 35.0466 54.8037 35.1039 54.6411 35.2119C54.4786 35.3198 54.3517 35.4736 54.2766 35.6537C54.2015 35.8338 54.1816 36.0322 54.2192 36.2236C54.2569 36.4151 54.3506 36.5911 54.4884 36.7293C54.6261 36.8675 54.8018 36.9617 54.9932 37C55.1845 37.0383 55.3829 37.019 55.5632 36.9444C55.7436 36.8699 55.8978 36.7435 56.0062 36.5813C56.1147 36.4191 56.1726 36.2283 56.1726 36.0332C56.1726 35.7722 56.0692 35.5219 55.8849 35.3371C55.7007 35.1523 55.4507 35.0481 55.1898 35.0472Z" fill="#093F68"/>
<path d="M28.08 17.76C28.08 17.9753 28.1655 18.1818 28.3177 18.334C28.47 18.4862 28.6765 18.5718 28.8918 18.5718H41.2118C41.3182 18.5718 41.4236 18.5508 41.522 18.5099C41.6203 18.4691 41.7096 18.4092 41.7847 18.3338C41.8598 18.2584 41.9193 18.1689 41.9598 18.0704C42.0003 17.9719 42.0209 17.8664 42.0205 17.76C42.0207 17.6542 41.9999 17.5494 41.9593 17.4517C41.9188 17.354 41.8592 17.2653 41.7841 17.1908C41.6462 17.0522 41.4628 16.9682 41.2678 16.9544H28.8264C28.6235 16.9701 28.4338 17.0617 28.2955 17.211C28.1571 17.3604 28.0801 17.5564 28.08 17.76Z" fill="#093F68"/>
<path d="M41.2118 18.8828H28.8918C28.5948 18.8931 28.3059 18.785 28.0887 18.5823C27.8714 18.3796 27.7435 18.0989 27.7332 17.802C27.7229 17.505 27.831 17.2161 28.0337 16.9988C28.2364 16.7815 28.5171 16.6537 28.8141 16.6434H41.2118H41.3114C41.5718 16.6594 41.8173 16.77 42.0019 16.9544C42.1066 17.0575 42.1898 17.1805 42.2464 17.3162C42.303 17.4518 42.332 17.5974 42.3316 17.7444C42.3336 17.8929 42.3062 18.0404 42.2509 18.1782C42.1956 18.316 42.1135 18.4415 42.0093 18.5474C41.9052 18.6532 41.7811 18.7374 41.6442 18.795C41.5073 18.8526 41.3603 18.8824 41.2118 18.8828ZM28.8918 17.2623H28.8545C28.7225 17.2673 28.5979 17.3245 28.5081 17.4213C28.4182 17.5181 28.3705 17.6467 28.3755 17.7786C28.3804 17.9106 28.4376 18.0352 28.5345 18.1251C28.6313 18.2149 28.7598 18.2626 28.8918 18.2576H41.2118C41.3438 18.2622 41.4722 18.2141 41.5687 18.124C41.6653 18.0339 41.7221 17.9091 41.7266 17.7771C41.7311 17.6451 41.6831 17.5167 41.5929 17.4202C41.5028 17.3236 41.378 17.2669 41.246 17.2623H28.8918Z" fill="#093F68"/>
<path d="M59.454 29.2869C59.8113 29.2869 60.1009 28.6811 60.1009 27.9339C60.1009 27.1866 59.8113 26.5809 59.454 26.5809C59.0967 26.5809 58.807 27.1866 58.807 27.9339C58.807 28.6811 59.0967 29.2869 59.454 29.2869Z" fill="#093F68"/>
<path d="M53.8927 29.2869C54.25 29.2869 54.5396 28.6811 54.5396 27.9339C54.5396 27.1866 54.25 26.5809 53.8927 26.5809C53.5354 26.5809 53.2457 27.1866 53.2457 27.9339C53.2457 28.6811 53.5354 29.2869 53.8927 29.2869Z" fill="#093F68"/>
<path d="M17.5329 35.3209C17.4597 35.3222 17.3884 35.2977 17.3315 35.2516C17.2746 35.2055 17.2358 35.1409 17.2219 35.069C15.5485 26.1579 22.3819 21.4209 22.4535 21.3835C22.5217 21.3382 22.605 21.3216 22.6853 21.3373C22.7657 21.3531 22.8366 21.3998 22.8827 21.4675C22.9293 21.5356 22.9469 21.6193 22.9318 21.7004C22.9166 21.7815 22.8699 21.8532 22.8018 21.8998C22.7365 21.9434 16.2359 26.4627 17.8253 34.9632C17.8398 35.044 17.8218 35.1273 17.7752 35.1949C17.7286 35.2625 17.6572 35.3089 17.5765 35.324L17.5329 35.3209Z" fill="#3C4146"/>
<path d="M42.7267 11.5486C45.8204 11.5486 48.3284 9.04066 48.3284 5.94692C48.3284 2.85318 45.8204 0.345215 42.7267 0.345215C39.633 0.345215 37.125 2.85318 37.125 5.94692C37.125 9.04066 39.633 11.5486 42.7267 11.5486Z" fill="#FFBC0E"/>
<path d="M42.7235 11.8628C41.2497 11.8663 39.8274 11.321 38.7336 10.3331C37.6399 9.34524 36.9531 7.98555 36.8071 6.51898C36.6611 5.05241 37.0664 3.58401 37.9439 2.39989C38.8214 1.21577 40.1083 0.40076 41.5539 0.113651C42.9995 -0.173459 44.5002 0.0879022 45.7636 0.84681C47.027 1.60572 47.9626 2.80781 48.3882 4.21886C48.8137 5.62992 48.6986 7.14885 48.0655 8.47972C47.4323 9.81059 46.3263 10.8581 44.963 11.418C44.2525 11.7104 43.4918 11.8615 42.7235 11.8628ZM42.7235 0.665609C41.6832 0.668019 40.6664 0.975841 39.7994 1.55088C38.9325 2.12592 38.2534 2.94287 37.8465 3.90035C37.4085 4.9475 37.3191 6.1078 37.5915 7.20969C37.8639 8.31158 38.4837 9.29657 39.3591 10.019C40.2346 10.7414 41.3193 11.163 42.4529 11.2213C43.5865 11.2796 44.7087 10.9716 45.6537 10.3428C46.5987 9.71405 47.3162 8.79786 47.7003 7.72974C48.0843 6.66163 48.1144 5.49827 47.7862 4.41171C47.458 3.32514 46.7888 2.37303 45.8776 1.69617C44.9665 1.01931 43.8617 0.653614 42.7266 0.653167L42.7235 0.665609Z" fill="#093F68"/>
<path d="M41.4637 1.72937C41.5757 1.99997 41.6908 2.26746 41.7997 2.53806C41.8214 2.59093 41.8463 2.60026 41.9023 2.59093C42.329 2.50001 42.7716 2.51712 43.19 2.6407C43.6316 2.77118 44.0093 3.06031 44.2506 3.45249C44.3159 3.55824 44.375 3.67022 44.4403 3.7853L43.1962 4.30783C43.1156 4.12065 42.9743 3.96612 42.795 3.86928C42.6458 3.80919 42.4931 3.7583 42.3377 3.71687V3.74486L42.9909 5.30003L43.1371 5.27515C43.5032 5.19949 43.8769 5.16713 44.2506 5.17872C44.5258 5.18842 44.7934 5.27098 45.0262 5.41798C45.259 5.56498 45.4486 5.77114 45.5756 6.0154C45.8211 6.42209 45.916 6.90206 45.8438 7.37158C45.7716 7.8411 45.5369 8.27038 45.1806 8.58454C44.9846 8.76183 44.7638 8.91423 44.5585 9.0853L44.8136 9.70737L43.6628 10.1895L43.4015 9.5674C43.1433 9.60161 42.9007 9.64827 42.655 9.66382C42.1807 9.70587 41.7061 9.5864 41.3082 9.32479C40.9739 9.0938 40.7153 8.76918 40.5649 8.3917L41.809 7.87538C41.9057 8.08566 42.069 8.25816 42.2737 8.36614C42.4784 8.47411 42.713 8.51152 42.9412 8.47257C42.7089 7.91271 42.4756 7.35596 42.2413 6.80232C41.9801 6.83342 41.7188 6.86763 41.4575 6.89252C41.1428 6.93581 40.8222 6.90055 40.5244 6.78988C40.2241 6.66421 39.9714 6.44638 39.8028 6.16781C39.5809 5.84141 39.4519 5.46082 39.4296 5.06675C39.4153 4.78265 39.4635 4.49888 39.571 4.23551C39.6785 3.97214 39.8426 3.73562 40.0517 3.54269C40.2274 3.39146 40.4123 3.25122 40.6053 3.1228C40.6271 3.10581 40.6499 3.09023 40.6737 3.07614L40.3223 2.23635L41.4637 1.72937ZM44.0795 7.95003C44.2611 7.84783 44.4083 7.69414 44.5025 7.50836C44.5825 7.34814 44.6001 7.16389 44.5518 6.99144C44.5035 6.81898 44.3928 6.67065 44.2413 6.57526C43.9984 6.48261 43.7347 6.45892 43.4792 6.50684L44.0795 7.95003ZM41.1123 4.1181C40.9855 4.24552 40.869 4.38281 40.7639 4.52867C40.7133 4.61064 40.6811 4.70262 40.6696 4.79825C40.658 4.89388 40.6673 4.99088 40.6969 5.08255C40.7265 5.17423 40.7756 5.2584 40.8409 5.32924C40.9061 5.40008 40.986 5.45591 41.075 5.49287C41.2787 5.54343 41.491 5.54873 41.697 5.50842L41.1123 4.1181Z" fill="#3C4146"/>
<path d="M40.1917 17.9248C40.2832 17.7222 40.3632 17.5145 40.4312 17.3028C40.5159 17.0343 40.5804 16.7598 40.624 16.4816C40.6704 16.1916 40.6933 15.8983 40.6924 15.6045C40.6924 14.1197 40.1026 12.6957 39.0526 11.6457C38.0027 10.5958 36.5787 10.0059 35.0938 10.0059C33.609 10.0059 32.185 10.5958 31.135 11.6457C30.0851 12.6957 29.4952 14.1197 29.4952 15.6045C29.4949 15.8981 29.5167 16.1913 29.5606 16.4816C29.6053 16.7599 29.6708 17.0343 29.7565 17.3028C29.8221 17.5149 29.901 17.7227 29.9929 17.9248" fill="#FFBC0E"/>
<path d="M40.1916 18.2359C40.1489 18.2363 40.1066 18.2278 40.0672 18.211C40.0298 18.1945 39.9961 18.1708 39.9679 18.1412C39.9396 18.1116 39.9175 18.0768 39.9028 18.0386C39.8881 18.0005 39.881 17.9598 39.882 17.919C39.883 17.8781 39.892 17.8378 39.9086 17.8005C39.9943 17.61 40.0691 17.4147 40.1325 17.2157C40.215 16.962 40.2764 16.7019 40.3161 16.4381C40.3599 16.1646 40.3818 15.8879 40.3814 15.6108C40.3754 14.885 40.2201 14.1682 39.9251 13.5051C39.6301 12.8419 39.2018 12.2466 38.6667 11.7562C38.1317 11.2658 37.5014 10.8908 36.8151 10.6545C36.1288 10.4182 35.4013 10.3258 34.6777 10.383C33.9542 10.4401 33.2501 10.6456 32.6094 10.9866C31.9688 11.3277 31.4051 11.797 30.9537 12.3653C30.5023 12.9336 30.1726 13.5888 29.9854 14.29C29.7982 14.9913 29.7573 15.7235 29.8653 16.4413C29.9083 16.7034 29.9697 16.9622 30.0489 17.2157C30.1132 17.4144 30.1879 17.6096 30.2728 17.8005C30.2938 17.8382 30.3067 17.8799 30.3107 17.9229C30.3147 17.9659 30.3097 18.0092 30.296 18.0502C30.2823 18.0911 30.2603 18.1288 30.2313 18.1607C30.2022 18.1927 30.1669 18.2183 30.1274 18.2358C30.088 18.2534 30.0453 18.2625 30.0022 18.2627C29.959 18.2628 29.9163 18.254 29.8767 18.2368C29.8371 18.2195 29.8016 18.1942 29.7723 18.1625C29.743 18.1307 29.7207 18.0932 29.7067 18.0524C29.6099 17.8409 29.5258 17.6238 29.4548 17.4023C29.3665 17.1192 29.2979 16.8303 29.2495 16.5377C29.2028 16.2289 29.1799 15.9169 29.1811 15.6046C29.1811 14.0372 29.8037 12.5341 30.912 11.4258C32.0202 10.3176 33.5234 9.69495 35.0907 9.69495C36.658 9.69495 38.1612 10.3176 39.2694 11.4258C40.3777 12.5341 41.0003 14.0372 41.0003 15.6046C41.0008 15.917 40.9769 16.229 40.9288 16.5377C40.8822 16.8317 40.8136 17.1217 40.7235 17.4055C40.6523 17.6264 40.5692 17.8434 40.4747 18.0555C40.4497 18.1095 40.4098 18.1552 40.3596 18.1872C40.3094 18.2191 40.2511 18.2361 40.1916 18.2359Z" fill="#093F68"/>
<path d="M37.8496 16.8331C37.8368 16.7148 37.8117 16.598 37.7749 16.4848C37.7089 16.2778 37.5992 16.0873 37.4533 15.9263C37.3073 15.7654 37.1285 15.6376 36.9289 15.5517C36.5888 15.3974 36.2318 15.2836 35.8652 15.2127L35.719 15.1784V13.4802L35.7439 13.4615C35.8703 13.5578 35.9908 13.6617 36.1047 13.7726C36.2343 13.9304 36.3057 14.1281 36.3068 14.3324H37.6629C37.6443 14.2018 37.6349 14.0774 37.6163 13.953C37.5454 13.4973 37.3083 13.084 36.9507 12.7928C36.6121 12.5189 36.2117 12.3321 35.7843 12.2485C35.7283 12.2485 35.7128 12.2205 35.7128 12.1614V11.303H34.4686V12.2112H34.3878C34.1596 12.2575 33.9343 12.3167 33.7128 12.3885C33.4444 12.4828 33.2003 12.6355 32.998 12.8356C32.7958 13.0357 32.6405 13.2781 32.5433 13.5455C32.4085 13.9181 32.3794 14.3207 32.4594 14.7088C32.5121 15.0264 32.662 15.3198 32.8886 15.5486C33.1208 15.7635 33.4014 15.9192 33.7066 16.0027C33.9554 16.0804 34.2105 16.1489 34.4624 16.2204V17.9124H35.7065V16.4972C35.9599 16.5526 36.1934 16.6763 36.3815 16.8549C36.4788 16.9805 36.5245 17.1385 36.509 17.2966C36.5048 17.3935 36.4811 17.4886 36.4394 17.5762C36.3978 17.6639 36.3389 17.7422 36.2664 17.8067C36.2186 17.8476 36.1665 17.883 36.1109 17.9124H37.7065C37.7925 17.7155 37.843 17.5049 37.8558 17.2904C37.8694 17.1381 37.8673 16.9849 37.8496 16.8331ZM33.9088 14.6248C33.8392 14.5568 33.7855 14.4745 33.7512 14.3835C33.7169 14.2925 33.703 14.1951 33.7104 14.0981C33.7178 14.0012 33.7464 13.907 33.7941 13.8223C33.8418 13.7376 33.9075 13.6643 33.9865 13.6077C34.139 13.5162 34.298 13.4361 34.4624 13.3682V14.8736C34.2623 14.8308 34.0736 14.746 33.9088 14.6248ZM33.6942 17.309C33.6704 17.2266 33.6538 17.1423 33.6444 17.0571H32.3132C32.3084 17.141 32.3084 17.2251 32.3132 17.309C32.3308 17.5231 32.3822 17.7331 32.4656 17.9311H34.1514C34.0368 17.8641 33.9371 17.7743 33.8585 17.6673C33.7798 17.5603 33.7239 17.4384 33.6942 17.309Z" fill="#3C4146"/>
<path d="M58.303 54.6733H69.0399C69.4023 54.6733 69.6962 54.3795 69.6962 54.0171V52.21C69.6962 51.8475 69.4023 51.5537 69.0399 51.5537H58.303C57.9406 51.5537 57.6468 51.8475 57.6468 52.21V54.0171C57.6468 54.3795 57.9406 54.6733 58.303 54.6733Z" fill="#FFBC0E"/>
<path d="M69.0369 54.9844H58.3001C58.0435 54.9844 57.7975 54.8825 57.6161 54.7011C57.4347 54.5197 57.3328 54.2736 57.3328 54.0171V52.21C57.3336 51.9537 57.4358 51.7081 57.617 51.5269C57.7982 51.3457 58.0438 51.2435 58.3001 51.2427H69.0369C69.2938 51.2427 69.5401 51.3445 69.722 51.5258C69.9039 51.7071 70.0065 51.9532 70.0074 52.21V54.0171C70.0065 54.2739 69.9039 54.52 69.722 54.7013C69.5401 54.8826 69.2938 54.9844 69.0369 54.9844ZM58.3001 51.8741C58.2547 51.8741 58.2098 51.883 58.168 51.9004C58.1261 51.9177 58.088 51.9431 58.0559 51.9752C58.0239 52.0072 57.9985 52.0453 57.9811 52.0872C57.9638 52.1291 57.9548 52.174 57.9548 52.2193V54.0264C57.9548 54.118 57.9912 54.2058 58.0559 54.2705C58.1207 54.3353 58.2085 54.3717 58.3001 54.3717H69.0369C69.1288 54.3717 69.2169 54.3354 69.2822 54.2707C69.3474 54.2061 69.3845 54.1183 69.3853 54.0264V52.2193C69.3845 52.1275 69.3474 52.0397 69.2822 51.975C69.2169 51.9103 69.1288 51.8741 69.0369 51.8741H58.3001Z" fill="#093F68"/>
<path d="M59.9827 51.5537H70.7196C71.082 51.5537 71.3759 51.2599 71.3759 50.8974V49.0903C71.3759 48.7279 71.082 48.4341 70.7196 48.4341H59.9827C59.6203 48.4341 59.3264 48.7279 59.3264 49.0903V50.8974C59.3264 51.2599 59.6203 51.5537 59.9827 51.5537Z" fill="#FFBC0E"/>
<path d="M70.7195 51.8648H59.9826C59.7258 51.8648 59.4794 51.763 59.2975 51.5816C59.1156 51.4003 59.013 51.1543 59.0122 50.8975V49.0904C59.013 48.8335 59.1156 48.5875 59.2975 48.4062C59.4794 48.2249 59.7258 48.123 59.9826 48.123H70.7195C70.9758 48.1239 71.2213 48.226 71.4026 48.4073C71.5838 48.5885 71.686 48.8341 71.6868 49.0904V50.8975C71.686 51.1538 71.5838 51.3993 71.4026 51.5805C71.2213 51.7618 70.9758 51.864 70.7195 51.8648ZM59.9826 48.7544C59.8908 48.7544 59.8026 48.7907 59.7374 48.8554C59.6722 48.92 59.6351 49.0078 59.6343 49.0997V50.9068C59.6351 50.9986 59.6722 51.0865 59.7374 51.1511C59.8026 51.2158 59.8908 51.252 59.9826 51.252H70.7195C70.8105 51.2488 70.8966 51.2097 70.9589 51.1433C71.0212 51.0769 71.0548 50.9885 71.0523 50.8975V49.0904C71.0523 48.9988 71.0159 48.911 70.9512 48.8462C70.8864 48.7815 70.7986 48.7451 70.7071 48.7451L59.9826 48.7544Z" fill="#093F68"/>
<path d="M73.9885 54.9844H0.311033C0.228542 54.9844 0.149429 54.9516 0.0910992 54.8933C0.0327692 54.8349 0 54.7558 0 54.6733C0 54.5908 0.0327692 54.5117 0.0910992 54.4534C0.149429 54.3951 0.228542 54.3623 0.311033 54.3623H73.9885C74.071 54.3623 74.1501 54.3951 74.2085 54.4534C74.2668 54.5117 74.2996 54.5908 74.2996 54.6733C74.2996 54.7558 74.2668 54.8349 74.2085 54.8933C74.1501 54.9516 74.071 54.9844 73.9885 54.9844Z" fill="#093F68"/>
</svg>
